<mxfile host="Electron" agent="Mozilla/5.0 (Windows NT 10.0; Win64; x64) AppleWebKit/537.36 (KHTML, like Gecko) draw.io/25.0.2 Chrome/128.0.6613.186 Electron/32.2.5 Safari/537.36" version="25.0.2">
  <diagram id="C5RBs43oDa-KdzZeNtuy" name="Page-1">
    <mxGraphModel dx="794" dy="557" grid="1" gridSize="10" guides="1" tooltips="1" connect="1" arrows="1" fold="1" page="1" pageScale="1" pageWidth="827" pageHeight="1169" math="0" shadow="0">
      <root>
        <mxCell id="WIyWlLk6GJQsqaUBKTNV-0" />
        <mxCell id="WIyWlLk6GJQsqaUBKTNV-1" parent="WIyWlLk6GJQsqaUBKTNV-0" />
        <mxCell id="ffgOB7br1zTsCkJ_tpnc-2" style="edgeStyle=orthogonalEdgeStyle;rounded=0;orthogonalLoop=1;jettySize=auto;html=1;entryX=0.5;entryY=0;entryDx=0;entryDy=0;" edge="1" parent="WIyWlLk6GJQsqaUBKTNV-1" source="ffgOB7br1zTsCkJ_tpnc-0" target="ffgOB7br1zTsCkJ_tpnc-1">
          <mxGeometry relative="1" as="geometry" />
        </mxCell>
        <mxCell id="ffgOB7br1zTsCkJ_tpnc-0" value="Start" style="strokeWidth=2;html=1;shape=mxgraph.flowchart.start_1;whiteSpace=wrap;" vertex="1" parent="WIyWlLk6GJQsqaUBKTNV-1">
          <mxGeometry x="364" y="60" width="100" height="60" as="geometry" />
        </mxCell>
        <mxCell id="ffgOB7br1zTsCkJ_tpnc-1" value="Input N" style="shape=parallelogram;html=1;strokeWidth=2;perimeter=parallelogramPerimeter;whiteSpace=wrap;rounded=1;arcSize=12;size=0.23;" vertex="1" parent="WIyWlLk6GJQsqaUBKTNV-1">
          <mxGeometry x="364" y="160" width="100" height="60" as="geometry" />
        </mxCell>
        <mxCell id="ffgOB7br1zTsCkJ_tpnc-3" value="N &amp;lt; 4" style="strokeWidth=2;html=1;shape=mxgraph.flowchart.decision;whiteSpace=wrap;" vertex="1" parent="WIyWlLk6GJQsqaUBKTNV-1">
          <mxGeometry x="364" y="260" width="100" height="100" as="geometry" />
        </mxCell>
        <mxCell id="ffgOB7br1zTsCkJ_tpnc-4" value="Không Đạt" style="strokeWidth=2;html=1;shape=mxgraph.flowchart.display;whiteSpace=wrap;" vertex="1" parent="WIyWlLk6GJQsqaUBKTNV-1">
          <mxGeometry x="500" y="280" width="100" height="60" as="geometry" />
        </mxCell>
        <mxCell id="ffgOB7br1zTsCkJ_tpnc-6" value="đúng" style="text;html=1;align=center;verticalAlign=middle;resizable=0;points=[];autosize=1;strokeColor=none;fillColor=none;" vertex="1" parent="WIyWlLk6GJQsqaUBKTNV-1">
          <mxGeometry x="460" y="270" width="50" height="30" as="geometry" />
        </mxCell>
        <mxCell id="ffgOB7br1zTsCkJ_tpnc-7" value="4 &amp;lt;= N &amp;lt;= 6" style="strokeWidth=2;html=1;shape=mxgraph.flowchart.decision;whiteSpace=wrap;" vertex="1" parent="WIyWlLk6GJQsqaUBKTNV-1">
          <mxGeometry x="364" y="380" width="96" height="100" as="geometry" />
        </mxCell>
        <mxCell id="ffgOB7br1zTsCkJ_tpnc-8" value="sai" style="text;html=1;align=center;verticalAlign=middle;resizable=0;points=[];autosize=1;strokeColor=none;fillColor=none;" vertex="1" parent="WIyWlLk6GJQsqaUBKTNV-1">
          <mxGeometry x="424" y="360" width="40" height="30" as="geometry" />
        </mxCell>
        <mxCell id="ffgOB7br1zTsCkJ_tpnc-9" value="Trung Bình" style="strokeWidth=2;html=1;shape=mxgraph.flowchart.display;whiteSpace=wrap;" vertex="1" parent="WIyWlLk6GJQsqaUBKTNV-1">
          <mxGeometry x="500" y="400" width="100" height="60" as="geometry" />
        </mxCell>
        <mxCell id="ffgOB7br1zTsCkJ_tpnc-10" value="đúng" style="text;html=1;align=center;verticalAlign=middle;resizable=0;points=[];autosize=1;strokeColor=none;fillColor=none;" vertex="1" parent="WIyWlLk6GJQsqaUBKTNV-1">
          <mxGeometry x="460" y="390" width="50" height="30" as="geometry" />
        </mxCell>
        <mxCell id="ffgOB7br1zTsCkJ_tpnc-11" value="6 &amp;lt;= N &amp;lt;= 8" style="strokeWidth=2;html=1;shape=mxgraph.flowchart.decision;whiteSpace=wrap;" vertex="1" parent="WIyWlLk6GJQsqaUBKTNV-1">
          <mxGeometry x="364" y="500" width="100" height="100" as="geometry" />
        </mxCell>
        <mxCell id="ffgOB7br1zTsCkJ_tpnc-12" value="sai" style="text;html=1;align=center;verticalAlign=middle;resizable=0;points=[];autosize=1;strokeColor=none;fillColor=none;" vertex="1" parent="WIyWlLk6GJQsqaUBKTNV-1">
          <mxGeometry x="424" y="480" width="40" height="30" as="geometry" />
        </mxCell>
        <mxCell id="ffgOB7br1zTsCkJ_tpnc-13" value="Khá" style="strokeWidth=2;html=1;shape=mxgraph.flowchart.display;whiteSpace=wrap;" vertex="1" parent="WIyWlLk6GJQsqaUBKTNV-1">
          <mxGeometry x="490" y="520" width="100" height="60" as="geometry" />
        </mxCell>
        <mxCell id="ffgOB7br1zTsCkJ_tpnc-15" value="đúng" style="text;html=1;align=center;verticalAlign=middle;resizable=0;points=[];autosize=1;strokeColor=none;fillColor=none;" vertex="1" parent="WIyWlLk6GJQsqaUBKTNV-1">
          <mxGeometry x="450" y="510" width="50" height="30" as="geometry" />
        </mxCell>
        <mxCell id="ffgOB7br1zTsCkJ_tpnc-16" value="8 &amp;lt;= N &amp;lt;= 9" style="strokeWidth=2;html=1;shape=mxgraph.flowchart.decision;whiteSpace=wrap;" vertex="1" parent="WIyWlLk6GJQsqaUBKTNV-1">
          <mxGeometry x="364" y="620" width="100" height="100" as="geometry" />
        </mxCell>
        <mxCell id="ffgOB7br1zTsCkJ_tpnc-17" value="sai" style="text;html=1;align=center;verticalAlign=middle;resizable=0;points=[];autosize=1;strokeColor=none;fillColor=none;" vertex="1" parent="WIyWlLk6GJQsqaUBKTNV-1">
          <mxGeometry x="424" y="600" width="40" height="30" as="geometry" />
        </mxCell>
        <mxCell id="ffgOB7br1zTsCkJ_tpnc-18" value="Giỏi" style="strokeWidth=2;html=1;shape=mxgraph.flowchart.display;whiteSpace=wrap;" vertex="1" parent="WIyWlLk6GJQsqaUBKTNV-1">
          <mxGeometry x="490" y="640" width="100" height="60" as="geometry" />
        </mxCell>
        <mxCell id="ffgOB7br1zTsCkJ_tpnc-19" value="đúng" style="text;html=1;align=center;verticalAlign=middle;resizable=0;points=[];autosize=1;strokeColor=none;fillColor=none;" vertex="1" parent="WIyWlLk6GJQsqaUBKTNV-1">
          <mxGeometry x="450" y="630" width="50" height="30" as="geometry" />
        </mxCell>
        <mxCell id="ffgOB7br1zTsCkJ_tpnc-38" style="edgeStyle=orthogonalEdgeStyle;rounded=0;orthogonalLoop=1;jettySize=auto;html=1;exitX=0.5;exitY=1;exitDx=0;exitDy=0;exitPerimeter=0;entryX=0.5;entryY=0;entryDx=0;entryDy=0;" edge="1" parent="WIyWlLk6GJQsqaUBKTNV-1" source="ffgOB7br1zTsCkJ_tpnc-20" target="ffgOB7br1zTsCkJ_tpnc-37">
          <mxGeometry relative="1" as="geometry" />
        </mxCell>
        <mxCell id="ffgOB7br1zTsCkJ_tpnc-20" value="N = 10" style="strokeWidth=2;html=1;shape=mxgraph.flowchart.decision;whiteSpace=wrap;" vertex="1" parent="WIyWlLk6GJQsqaUBKTNV-1">
          <mxGeometry x="364" y="740" width="100" height="100" as="geometry" />
        </mxCell>
        <mxCell id="ffgOB7br1zTsCkJ_tpnc-21" value="sai" style="text;html=1;align=center;verticalAlign=middle;resizable=0;points=[];autosize=1;strokeColor=none;fillColor=none;" vertex="1" parent="WIyWlLk6GJQsqaUBKTNV-1">
          <mxGeometry x="424" y="720" width="40" height="30" as="geometry" />
        </mxCell>
        <mxCell id="ffgOB7br1zTsCkJ_tpnc-22" value="Xuất Sắc" style="strokeWidth=2;html=1;shape=mxgraph.flowchart.display;whiteSpace=wrap;" vertex="1" parent="WIyWlLk6GJQsqaUBKTNV-1">
          <mxGeometry x="490" y="760" width="100" height="60" as="geometry" />
        </mxCell>
        <mxCell id="ffgOB7br1zTsCkJ_tpnc-24" style="edgeStyle=orthogonalEdgeStyle;rounded=0;orthogonalLoop=1;jettySize=auto;html=1;entryX=0.5;entryY=0;entryDx=0;entryDy=0;entryPerimeter=0;" edge="1" parent="WIyWlLk6GJQsqaUBKTNV-1" source="ffgOB7br1zTsCkJ_tpnc-1" target="ffgOB7br1zTsCkJ_tpnc-3">
          <mxGeometry relative="1" as="geometry" />
        </mxCell>
        <mxCell id="ffgOB7br1zTsCkJ_tpnc-25" style="edgeStyle=orthogonalEdgeStyle;rounded=0;orthogonalLoop=1;jettySize=auto;html=1;exitX=0.5;exitY=1;exitDx=0;exitDy=0;exitPerimeter=0;entryX=0.5;entryY=0;entryDx=0;entryDy=0;entryPerimeter=0;" edge="1" parent="WIyWlLk6GJQsqaUBKTNV-1" source="ffgOB7br1zTsCkJ_tpnc-3" target="ffgOB7br1zTsCkJ_tpnc-7">
          <mxGeometry relative="1" as="geometry" />
        </mxCell>
        <mxCell id="ffgOB7br1zTsCkJ_tpnc-26" style="edgeStyle=orthogonalEdgeStyle;rounded=0;orthogonalLoop=1;jettySize=auto;html=1;exitX=0.5;exitY=1;exitDx=0;exitDy=0;exitPerimeter=0;entryX=0.5;entryY=0;entryDx=0;entryDy=0;entryPerimeter=0;" edge="1" parent="WIyWlLk6GJQsqaUBKTNV-1" source="ffgOB7br1zTsCkJ_tpnc-7" target="ffgOB7br1zTsCkJ_tpnc-11">
          <mxGeometry relative="1" as="geometry" />
        </mxCell>
        <mxCell id="ffgOB7br1zTsCkJ_tpnc-27" style="edgeStyle=orthogonalEdgeStyle;rounded=0;orthogonalLoop=1;jettySize=auto;html=1;exitX=0.5;exitY=1;exitDx=0;exitDy=0;exitPerimeter=0;entryX=0.5;entryY=0;entryDx=0;entryDy=0;entryPerimeter=0;" edge="1" parent="WIyWlLk6GJQsqaUBKTNV-1" source="ffgOB7br1zTsCkJ_tpnc-11" target="ffgOB7br1zTsCkJ_tpnc-16">
          <mxGeometry relative="1" as="geometry" />
        </mxCell>
        <mxCell id="ffgOB7br1zTsCkJ_tpnc-28" style="edgeStyle=orthogonalEdgeStyle;rounded=0;orthogonalLoop=1;jettySize=auto;html=1;exitX=0.5;exitY=1;exitDx=0;exitDy=0;exitPerimeter=0;entryX=0.5;entryY=0;entryDx=0;entryDy=0;entryPerimeter=0;" edge="1" parent="WIyWlLk6GJQsqaUBKTNV-1" source="ffgOB7br1zTsCkJ_tpnc-16" target="ffgOB7br1zTsCkJ_tpnc-20">
          <mxGeometry relative="1" as="geometry" />
        </mxCell>
        <mxCell id="ffgOB7br1zTsCkJ_tpnc-29" style="edgeStyle=orthogonalEdgeStyle;rounded=0;orthogonalLoop=1;jettySize=auto;html=1;exitX=1;exitY=0.5;exitDx=0;exitDy=0;exitPerimeter=0;entryX=0;entryY=0.5;entryDx=0;entryDy=0;entryPerimeter=0;" edge="1" parent="WIyWlLk6GJQsqaUBKTNV-1" source="ffgOB7br1zTsCkJ_tpnc-3" target="ffgOB7br1zTsCkJ_tpnc-4">
          <mxGeometry relative="1" as="geometry" />
        </mxCell>
        <mxCell id="ffgOB7br1zTsCkJ_tpnc-31" style="edgeStyle=orthogonalEdgeStyle;rounded=0;orthogonalLoop=1;jettySize=auto;html=1;exitX=1;exitY=0.5;exitDx=0;exitDy=0;exitPerimeter=0;entryX=0;entryY=0.5;entryDx=0;entryDy=0;entryPerimeter=0;" edge="1" parent="WIyWlLk6GJQsqaUBKTNV-1" source="ffgOB7br1zTsCkJ_tpnc-7" target="ffgOB7br1zTsCkJ_tpnc-9">
          <mxGeometry relative="1" as="geometry" />
        </mxCell>
        <mxCell id="ffgOB7br1zTsCkJ_tpnc-32" style="edgeStyle=orthogonalEdgeStyle;rounded=0;orthogonalLoop=1;jettySize=auto;html=1;exitX=1;exitY=0.5;exitDx=0;exitDy=0;exitPerimeter=0;entryX=0;entryY=0.5;entryDx=0;entryDy=0;entryPerimeter=0;" edge="1" parent="WIyWlLk6GJQsqaUBKTNV-1" source="ffgOB7br1zTsCkJ_tpnc-11" target="ffgOB7br1zTsCkJ_tpnc-13">
          <mxGeometry relative="1" as="geometry" />
        </mxCell>
        <mxCell id="ffgOB7br1zTsCkJ_tpnc-33" style="edgeStyle=orthogonalEdgeStyle;rounded=0;orthogonalLoop=1;jettySize=auto;html=1;exitX=1;exitY=0.5;exitDx=0;exitDy=0;exitPerimeter=0;entryX=0;entryY=0.5;entryDx=0;entryDy=0;entryPerimeter=0;" edge="1" parent="WIyWlLk6GJQsqaUBKTNV-1" source="ffgOB7br1zTsCkJ_tpnc-16" target="ffgOB7br1zTsCkJ_tpnc-18">
          <mxGeometry relative="1" as="geometry" />
        </mxCell>
        <mxCell id="ffgOB7br1zTsCkJ_tpnc-34" style="edgeStyle=orthogonalEdgeStyle;rounded=0;orthogonalLoop=1;jettySize=auto;html=1;exitX=1;exitY=0.5;exitDx=0;exitDy=0;exitPerimeter=0;entryX=0;entryY=0.5;entryDx=0;entryDy=0;entryPerimeter=0;" edge="1" parent="WIyWlLk6GJQsqaUBKTNV-1" source="ffgOB7br1zTsCkJ_tpnc-20" target="ffgOB7br1zTsCkJ_tpnc-22">
          <mxGeometry relative="1" as="geometry" />
        </mxCell>
        <mxCell id="ffgOB7br1zTsCkJ_tpnc-37" value="Display rating" style="shape=parallelogram;html=1;strokeWidth=2;perimeter=parallelogramPerimeter;whiteSpace=wrap;rounded=1;arcSize=12;size=0.23;" vertex="1" parent="WIyWlLk6GJQsqaUBKTNV-1">
          <mxGeometry x="359" y="860" width="106" height="60" as="geometry" />
        </mxCell>
        <mxCell id="ffgOB7br1zTsCkJ_tpnc-41" style="edgeStyle=orthogonalEdgeStyle;rounded=0;orthogonalLoop=1;jettySize=auto;html=1;exitX=1;exitY=0.5;exitDx=0;exitDy=0;entryX=0.1;entryY=0.333;entryDx=0;entryDy=0;entryPerimeter=0;" edge="1" parent="WIyWlLk6GJQsqaUBKTNV-1" source="ffgOB7br1zTsCkJ_tpnc-37">
          <mxGeometry relative="1" as="geometry">
            <mxPoint x="500" y="889.98" as="targetPoint" />
          </mxGeometry>
        </mxCell>
        <mxCell id="ffgOB7br1zTsCkJ_tpnc-42" value="End" style="strokeWidth=2;html=1;shape=mxgraph.flowchart.start_1;whiteSpace=wrap;" vertex="1" parent="WIyWlLk6GJQsqaUBKTNV-1">
          <mxGeometry x="500" y="860" width="100" height="60" as="geometry" />
        </mxCell>
      </root>
    </mxGraphModel>
  </diagram>
</mxfile>
